<svg width="20" height="20" viewBox="0 0 20 20" fill="none" xmlns="http://www.w3.org/2000/svg">
<path fill-rule="evenodd" clip-rule="evenodd" d="M11.4012 1.04163C12.9327 1.04162 14.1457 1.0416 15.095 1.16924C16.072 1.30059 16.8628 1.57736 17.4865 2.20099C18.1101 2.82463 18.3868 3.61543 18.5183 4.59244C18.6458 5.54178 18.6458 6.7548 18.6458 8.28624V11.7136C18.6458 13.245 18.6458 14.4581 18.5183 15.4075C18.3868 16.3845 18.1101 17.1753 17.4865 17.799C16.8628 18.4225 16.072 18.6993 15.095 18.8307C14.1457 18.9583 12.9327 18.9583 11.4013 18.9583H10.0572C8.52575 18.9583 7.31265 18.9583 6.36332 18.8307C5.3863 18.6993 4.59551 18.4225 3.97187 17.799C3.44148 17.2685 3.16198 16.6172 3.00946 15.8333H2.1875C1.72727 15.8333 1.35417 15.4602 1.35417 15C1.35417 14.5397 1.72727 14.1666 2.1875 14.1666H2.84118C2.81248 13.4585 2.81249 12.645 2.8125 11.7136V10.8333H2.1875C1.72727 10.8333 1.35417 10.4602 1.35417 9.99996C1.35417 9.53971 1.72727 9.16663 2.1875 9.16663H2.8125V8.28628C2.81249 7.35497 2.81248 6.54139 2.84118 5.83329H2.1875C1.72727 5.83329 1.35417 5.46019 1.35417 4.99996C1.35417 4.53973 1.72727 4.16663 2.1875 4.16663H3.00946C3.16198 3.38268 3.44148 2.73138 3.97187 2.20099C4.59551 1.57736 5.3863 1.30059 6.36332 1.16924C7.31266 1.0416 8.52567 1.04162 10.0572 1.04163H11.4012ZM10.9375 5.20829C9.67183 5.20829 8.64583 6.23431 8.64583 7.49996C8.64583 8.76563 9.67183 9.79163 10.9375 9.79163C12.2032 9.79163 13.2292 8.76563 13.2292 7.49996C13.2292 6.23431 12.2032 5.20829 10.9375 5.20829ZM13.2938 11.2823C11.8545 10.4059 10.0207 10.4059 8.58142 11.2823C8.32306 11.4308 7.73473 11.77 7.42577 12.0793C7.22966 12.2756 7.02295 12.5543 6.98522 12.9072C6.94473 13.2861 7.10971 13.6341 7.41122 13.928C7.86715 14.3722 8.47683 14.7916 9.30458 14.7916H12.5706C13.3983 14.7916 14.008 14.3722 14.4639 13.928C14.7654 13.6341 14.9304 13.2861 14.8899 12.9072C14.8523 12.5542 14.6455 12.2756 14.4494 12.0793C14.1404 11.77 13.5521 11.4308 13.2938 11.2823Z" fill="#666666"/>
</svg>
