<svg xmlns="http://www.w3.org/2000/svg" fill='#2046f5' stroke='#2046f5' stroke-width='1px' version="1.1" viewBox="0 0 41 51.25" x="0px" y="0px"><title>left-arrow-1</title><path d="M2.645 2.352c-0.207 0-0.352 0.147-0.352 0.359v35.578c0 0.206 0.159 0.359 0.352 0.359s0.359-0.159 0.359-0.359v-35.578c0-0.207-0.153-0.359-0.359-0.359zM16.645 14.252c-0.093-0 0.178 0.031-0.249 0.103l-5.901 5.901c-0.148 0.148-0.147 0.352 0 0.499l5.901 5.901c0.074 0.074 0.157 0.105 0.254 0.105s0.176-0.030 0.252-0.105c0.147-0.147 0.146-0.355 0-0.501l-5.292-5.292h26.737c0.204 0 0.353-0.154 0.357-0.355-0.007-0.207-0.155-0.357-0.364-0.357h-0.586v-0.002h-26.151l5.292-5.292c0.147-0.147 0.146-0.355 0-0.501-0.073-0.073-0.156-0.103-0.249-0.103z"/></svg>
