<svg xmlns="http://www.w3.org/2000/svg" xmlns:xlink="http://www.w3.org/1999/xlink" version="1.1" fill='red' x="0px" y="0px" viewBox="0 0 100 125" enable-background="new 0 0 100 100" xml:space="preserve"><path d="M80.861,35.861C80.861,18.817,67.045,5,50,5C32.956,5,19.139,18.817,19.139,35.861c0,5.336,1.354,10.355,3.737,14.733  l22.75,41.791C46.464,93.942,48.108,95,50,95c1.896,0,3.544-1.064,4.38-2.628l22.742-41.777  C79.506,46.217,80.861,41.197,80.861,35.861z M50,52.65c-9.273,0-16.79-7.517-16.79-16.789c0-9.273,7.517-16.79,16.79-16.79  c9.273,0,16.791,7.517,16.791,16.79C66.791,45.134,59.273,52.65,50,52.65z"/><text x="0" y="0" fill="#000000" font-size="5px" font-weight="bold" font-family="'Helvetica Neue', Helvetica, Arial-Unicode, Arial, Sans-serif">Created by Gabriele Malaspina</text><text x="0" y="0" fill="#000000" font-size="1px" font-weight="light" font-family="'Helvetica Neue', Helvetica, Arial-Unicode, Arial, Sans-serif">from the Noun Project</text></svg>